<svg width="10" height="18" viewBox="0 0 10 18" fill="none" xmlns="http://www.w3.org/2000/svg">
<path d="M9.71105 17.4614C9.922 17.1552 10.0236 16.7613 9.99361 16.3656C9.96365 15.97 9.80461 15.6045 9.55113 15.3489L3.20323 9.00008L9.55103 2.65115C9.8055 2.39629 9.96519 2.03055 9.99495 1.6344C10.0247 1.23825 9.92211 0.844142 9.70972 0.538769C9.49734 0.233396 9.19256 0.0417752 8.86243 0.00606164C8.53231 -0.0296519 8.20389 0.0934671 7.94941 0.348334L0.449216 7.84866C0.30861 7.98936 0.19549 8.16543 0.117863 8.3644C0.0402361 8.56337 -3.83803e-07 8.78038 -3.93406e-07 9.00007C-4.03009e-07 9.21977 0.0402361 9.43678 0.117863 9.63575C0.19549 9.83472 0.30861 10.0108 0.449216 10.1515L7.94952 17.6518C8.20425 17.9066 8.53283 18.0296 8.86311 17.9939C9.19339 17.9582 9.49836 17.7667 9.71105 17.4614Z" fill="black"/>
</svg>
